<mxfile host="app.diagrams.net" modified="2023-10-16T04:39:21.851Z" agent="Mozilla/5.0 (Windows NT 10.0; Win64; x64) AppleWebKit/537.36 (KHTML, like Gecko) Chrome/118.0.0.0 Safari/537.36" version="21.8.2" etag="mtUOvh5AElbUDI9SBps3" type="github">
  <diagram name="Page-1" id="bR29wf-MgeaMHpn-Ym1C">
    <mxGraphModel>
      <root>
        <mxCell id="0" />
        <mxCell id="1" parent="0" />
      </root>
    </mxGraphModel>
  </diagram>
</mxfile>
